<mxfile host="app.diagrams.net" modified="2024-05-28T11:39:57.133Z" agent="Mozilla/5.0 (Windows NT 10.0; Win64; x64) AppleWebKit/537.36 (KHTML, like Gecko) Chrome/121.0.0.0 Safari/537.36" etag="yl3p8CAwtp6ET8Gjl-bN" version="24.4.9" type="device">
  <diagram name="PÃ¡gina-1" id="bhmRidgPXC7QAo4rRlLo">
    <mxGraphModel dx="2206" dy="1203" grid="1" gridSize="10" guides="1" tooltips="1" connect="1" arrows="1" fold="1" page="1" pageScale="1" pageWidth="827" pageHeight="1169" math="0" shadow="0">
      <root>
        <mxCell id="0" />
        <mxCell id="1" parent="0" />
        <mxCell id="FX0S2mEbMinlh3CZ4XmO-1" value="" style="rounded=1;whiteSpace=wrap;html=1;fillColor=#000000;strokeColor=#33FFFF;strokeWidth=7;arcSize=19;" vertex="1" parent="1">
          <mxGeometry x="170" y="80" width="470" height="890" as="geometry" />
        </mxCell>
        <mxCell id="FX0S2mEbMinlh3CZ4XmO-2" value="1" style="rounded=1;whiteSpace=wrap;html=1;" vertex="1" parent="1">
          <mxGeometry x="230" y="230" width="60" height="60" as="geometry" />
        </mxCell>
        <mxCell id="FX0S2mEbMinlh3CZ4XmO-3" value="1" style="rounded=1;whiteSpace=wrap;html=1;" vertex="1" parent="1">
          <mxGeometry x="230" y="320" width="60" height="60" as="geometry" />
        </mxCell>
        <mxCell id="FX0S2mEbMinlh3CZ4XmO-7" value="1" style="rounded=1;whiteSpace=wrap;html=1;" vertex="1" parent="1">
          <mxGeometry x="230" y="400" width="60" height="60" as="geometry" />
        </mxCell>
        <mxCell id="FX0S2mEbMinlh3CZ4XmO-8" value="1" style="rounded=1;whiteSpace=wrap;html=1;" vertex="1" parent="1">
          <mxGeometry x="230" y="480" width="60" height="60" as="geometry" />
        </mxCell>
        <mxCell id="FX0S2mEbMinlh3CZ4XmO-9" value="2" style="rounded=1;whiteSpace=wrap;html=1;" vertex="1" parent="1">
          <mxGeometry x="230" y="570" width="60" height="60" as="geometry" />
        </mxCell>
        <mxCell id="FX0S2mEbMinlh3CZ4XmO-11" value="&lt;font style=&quot;font-size: 24px;&quot; color=&quot;#33ffff&quot;&gt;Bolsos&lt;/font&gt;" style="text;html=1;align=center;verticalAlign=middle;whiteSpace=wrap;rounded=0;" vertex="1" parent="1">
          <mxGeometry x="299" y="225" width="230" height="65" as="geometry" />
        </mxCell>
        <mxCell id="FX0S2mEbMinlh3CZ4XmO-12" value="&lt;font style=&quot;font-size: 24px;&quot; color=&quot;#33ffff&quot;&gt;Gancho frontal&lt;/font&gt;" style="text;html=1;align=center;verticalAlign=middle;whiteSpace=wrap;rounded=0;" vertex="1" parent="1">
          <mxGeometry x="317" y="335" width="216" height="30" as="geometry" />
        </mxCell>
        <mxCell id="FX0S2mEbMinlh3CZ4XmO-14" value="&lt;font style=&quot;font-size: 24px;&quot; color=&quot;#33ffff&quot;&gt;Gancho Traseiro&lt;/font&gt;" style="text;html=1;align=center;verticalAlign=middle;whiteSpace=wrap;rounded=0;" vertex="1" parent="1">
          <mxGeometry x="317" y="415" width="216" height="30" as="geometry" />
        </mxCell>
        <mxCell id="FX0S2mEbMinlh3CZ4XmO-15" value="&lt;font style=&quot;font-size: 24px;&quot; color=&quot;#33ffff&quot;&gt;Passador&lt;/font&gt;" style="text;html=1;align=center;verticalAlign=middle;whiteSpace=wrap;rounded=0;" vertex="1" parent="1">
          <mxGeometry x="317" y="495" width="216" height="30" as="geometry" />
        </mxCell>
        <mxCell id="FX0S2mEbMinlh3CZ4XmO-16" value="&lt;font color=&quot;#33ffff&quot;&gt;&lt;span style=&quot;font-size: 24px;&quot;&gt;Bocas&lt;/span&gt;&lt;/font&gt;" style="text;html=1;align=center;verticalAlign=middle;whiteSpace=wrap;rounded=0;" vertex="1" parent="1">
          <mxGeometry x="317" y="585" width="216" height="30" as="geometry" />
        </mxCell>
        <mxCell id="FX0S2mEbMinlh3CZ4XmO-17" value="&lt;font style=&quot;font-size: 48px;&quot; color=&quot;#33ffff&quot;&gt;&lt;b&gt;COSTURA&lt;/b&gt;&lt;/font&gt;" style="text;html=1;align=center;verticalAlign=middle;whiteSpace=wrap;rounded=0;" vertex="1" parent="1">
          <mxGeometry x="299" y="120" width="230" height="65" as="geometry" />
        </mxCell>
        <mxCell id="FX0S2mEbMinlh3CZ4XmO-18" value="&lt;font style=&quot;font-size: 24px;&quot;&gt;&lt;b&gt;SEPARAR PARA CRIAR&lt;/b&gt;&lt;/font&gt;" style="rounded=1;whiteSpace=wrap;html=1;fillColor=#33FFFF;" vertex="1" parent="1">
          <mxGeometry x="293" y="720" width="240" height="60" as="geometry" />
        </mxCell>
        <mxCell id="FX0S2mEbMinlh3CZ4XmO-20" style="edgeStyle=orthogonalEdgeStyle;rounded=0;orthogonalLoop=1;jettySize=auto;html=1;exitX=0;exitY=0;exitDx=21;exitDy=55.25;exitPerimeter=0;entryX=0;entryY=0;entryDx=0;entryDy=55.25;entryPerimeter=0;" edge="1" parent="1">
          <mxGeometry relative="1" as="geometry">
            <mxPoint x="221" y="875.25" as="sourcePoint" />
            <mxPoint x="200" y="875.25" as="targetPoint" />
          </mxGeometry>
        </mxCell>
        <mxCell id="FX0S2mEbMinlh3CZ4XmO-21" value="" style="html=1;shadow=0;dashed=0;align=center;verticalAlign=middle;shape=mxgraph.arrows2.jumpInArrow;dy=15;dx=38;arrowHead=55;rotation=-180;fillColor=#33FFFF;" vertex="1" parent="1">
          <mxGeometry x="180" y="820" width="100" height="100" as="geometry" />
        </mxCell>
      </root>
    </mxGraphModel>
  </diagram>
</mxfile>
